<svg width="99" height="33" viewBox="0 0 99 33" xmlns="http://www.w3.org/2000/svg"><g fill="#DA1F19" fill-rule="evenodd"><path d="M72.367 25.084h2.09V32.4h-2.09zM54.599 14.632h6.271v1.527h-4.4v1.316h4.046v1.473H56.47v1.474h4.4v1.527h-6.271zM81.212 26.02v-1.75c-.616-.17-1.399-.226-2.294-.226-1.286-.056-3.523.283-3.412 2.597.112 1.412 1.119 1.807 2.573 2.259 1.23.395 1.455.508 1.399 1.072-.112.565-.783.622-1.175.622-.783 0-1.958-.17-2.74-.452v1.92s1.454.282 2.796.338c1.007 0 3.244-.339 3.412-2.484.056-1.411-.84-1.92-1.51-2.258-1.734-.734-2.182-.678-2.405-1.017-.28-.62.447-.903 1.286-.846.28 0 .783 0 2.07.225zM59.375 32.4h2.54v-7.316h-1.88v4.912l-2.896-4.912H54.6V32.4h1.93v-4.912l2.846 4.912zm9.856-10.504l-2.371-2.978c.706.052 1.867-.575 1.867-1.934.05-1.83-.858-2.352-2.22-2.352h-4.592v7.317h1.968V16.2h1.867c.353 0 .959.052.959.888 0 .732-.505.837-1.01.837h-1.665l2.675 4.024h2.522v-.053zm-21.948 3.188h6.27v1.568h-4.399v1.306h4.096v1.463h-4.096v1.464h4.4V32.4h-6.271zM68.781 32.4h2.54v-7.316h-1.88v4.912l-2.895-4.912h-2.54V32.4h1.93v-4.912l2.845 4.912zm27.175 0h2.54v-7.316h-1.88v4.912l-2.896-4.912h-2.54V32.4h1.93v-4.912l2.846 4.912z"/><path d="M72.085 17.402l-1.642-2.77h-2.257l3.232 4.756v2.56h1.898v-2.56l3.231-4.756H74.24l-1.693 2.77c-.154.261-.256.523-.256.523s-.051-.262-.205-.523zm13.869 14.997c-2.684.055-4.18-1.56-4.18-4.18 0-2.619 1.496-4.234 4.18-4.179 2.684-.055 4.18 1.56 4.18 4.18 0 2.563-1.496 4.179-4.18 4.179zm0-1.895c1.445 0 2.22-.891 2.22-2.284 0-1.394-.775-2.34-2.22-2.34-1.445 0-2.22.89-2.22 2.34.052 1.393.775 2.284 2.22 2.284zM43.66 25.136c2.787 0 3.623 2.143 3.623 3.658-.056 1.673-.836 3.606-3.568 3.606h-4.794v-7.316h4.739v.052zm1.449 3.658c0-1.567-1.003-2.038-2.23-2.038h-1.784v4.024h1.728c1.227.052 2.286-.261 2.286-1.986zm-3.468-8.414l-.604 1.569h-2.116l2.972-7.317h2.468l2.922 7.317h-2.116l-.604-1.568H41.64zm1.763-3.344s-.15-.418-.251-.784c-.101.366-.252.784-.252.784l-.705 1.882h1.863l-.655-1.882zM.25 26.757c0-.912.157-1.34.47-2.145.209-.43.104-.215.679-1.34a11506.59 11506.59 0 0 1 9.394-17.267c.574-.965 1.41-2.52 1.41-2.52C13.35 1.448 14.447.536 15.856.107c.157-.053.261-.053.418-.107h2.348c.627.107 1.149.375 1.618.643.888.537 1.67 1.502 2.245 2.52.208.322.156.215.887 1.556l10.282 18.66c.835 1.5 1.41 2.841.887 4.772-.783 2.734-2.87 3.968-5.637 4.182-.782.107-.574.054-1.252.054H7.244c-1.357 0-.574 0-1.148-.054C2.234 32.28.25 29.384.25 26.757zm12.11-5.738l7.515-13.566c.574-1.126.626-1.93.418-2.68-.47-1.663-2.14-2.682-3.81-2.146-.731.215-1.305.644-1.932 1.77l-9.186 16.89a5.956 5.956 0 0 1 1.827-.321h.261l8.716-15.818c.313-.537.574-.751.888-.858.782-.268 1.461.214 1.67.911.104.376 0 .75-.261 1.233l-8.09 14.585h1.983zm2.922 0h4.436l-2.244-3.968-2.192 3.968zm3.653-6.541l7.412 13.351c.522.858.992 1.501 1.931 1.823 1.618.536 3.393-.536 3.81-2.198.261-1.073-.052-1.823-.47-2.52L22.12 7.775c-.104.912-.47 1.609-.73 2.198l8.716 15.765c.313.59.365.965.26 1.287-.156.697-.939 1.126-1.617.911-.313-.107-.574-.321-.94-.965l-7.88-14.317-.993 1.824zm6.003 15.281c-.783-.643-1.044-1.126-1.41-1.77H5.888c-.314 0-.68-.106-.94-.374a1.32 1.32 0 0 1-.052-1.877c.26-.268.678-.376.991-.376h16.18l-1.044-1.769H6.043c-.99 0-1.774.375-2.348.965-1.2 1.18-1.2 3.164.104 4.45.783.698 1.462.751 2.401.805h18.738v-.054zM49.4 19.738l-1.974-5.106h-2.234l3.117 7.317h2.18l3.065-7.317h-2.181z"/></g></svg>