<svg width="131" height="30" viewBox="0 0 131 30" xmlns="http://www.w3.org/2000/svg"><g fill="none"><path fill="#3277BD" d="M110.284 5.316l-4.105 5.828-1.26-5.828h-4.594l-8.1 11.497h3.888l4.068-5.774 1.249 5.774h4.643l8.1-11.497z"/><path d="M14.753 14.598l3.025 5.514a9.844 9.844 0 0 1-7.003 2.896 9.885 9.885 0 0 1-5.92-1.954c1.793-4.147 5.734-9.888 11.183-15.452 2.687 1.683 4.467 4.613 4.467 7.95a9.189 9.189 0 0 1-.921 4.015c-1.778-.754-3.441-1.722-4.831-2.969zM3.18 19.461a9.252 9.252 0 0 1-2.138-5.909c0-5.221 4.358-9.454 9.732-9.454 1.516 0 2.951.337 4.231.938C9.622 9.566 5.502 14.92 3.181 19.46zm17.137-1.597a9.938 9.938 0 0 0 .981-4.312c0-3.555-1.867-6.684-4.7-8.517A74.936 74.936 0 0 1 22.055.09a47.54 47.54 0 0 0-6.395 4.405 10.723 10.723 0 0 0-4.885-1.17C4.962 3.326.249 7.905.249 13.553c0 2.551.964 4.88 2.554 6.672-2.016 4.233-2.37 7.64-.594 8.79 1.902 1.232 6.038-1 8.519-4.639 0 0-3.838 3.364-5.945 2.593-1.3-.478-1.304-2.406-.233-5.171a10.686 10.686 0 0 0 6.225 1.98c2.883 0 5.494-1.127 7.395-2.95l.374.683c4.588-.362 18.286-.712 18.286-.712 0-.642-9.072-.062-16.512-2.934z" fill="#AEADAE"/><path fill="#3277BD" d="M83.205 12.61l1.693-2.186-5.895-.001 1.454-1.875h5.893l1.693-2.187H76.278l-8.093 10.452H79.95l1.692-2.186h-5.89l1.558-2.017zm7.487-6.249l-7.874 10.452h5.714l7.873-10.452zm38.774.001h-9.374a4.94 4.94 0 0 0-3.927 1.919l-4.842 6.292c-.18.233-.286.526-.286.84 0 .774.639 1.4 1.428 1.4h9.374a4.942 4.942 0 0 0 3.929-1.918l1.165-1.512h1.352l1.693-2.202H122.8l-2.268 2.948a1.286 1.286 0 0 1-1.02.497h-1.65a.367.367 0 0 1-.372-.363c0-.083.028-.159.074-.219l3.847-4.998c.231-.303.6-.497 1.018-.497h1.652c.205 0 .37.163.37.363a.365.365 0 0 1-.074.218l-.625.812h5.83l1.027-1.339c.18-.234.287-.525.287-.842 0-.771-.64-1.4-1.429-1.4zM64.801 9.13l-3.846 4.998a1.284 1.284 0 0 1-1.019.497h-1.652a.362.362 0 1 1-.296-.582l3.846-4.997a1.284 1.284 0 0 1 1.019-.498h1.652c.204 0 .37.163.37.363a.356.356 0 0 1-.074.218zm6.52-1.37c0-.771-.64-1.399-1.43-1.399H60.52a4.944 4.944 0 0 0-3.929 1.92l-4.841 6.291c-.18.234-.286.526-.286.84 0 .774.639 1.4 1.427 1.4l9.374.001a4.945 4.945 0 0 0 3.93-1.92l4.842-6.29c.18-.234.285-.526.285-.842zM46.834 9.13l-.632.797c-.24.3-.62.496-1.05.496h-2.47l1.488-1.875h2.359c.21 0 .382.163.382.363 0 .081-.03.157-.077.218zm-3.221 4.06l-.744.939c-.24.3-.62.497-1.05.497H39.35l1.599-2.017h2.359c.21 0 .381.164.381.363a.348.348 0 0 1-.076.219zm5.579-1.347a5.097 5.097 0 0 0 2.922-1.797l1.144-1.442c.185-.235.295-.527.295-.843 0-.772-.66-1.4-1.472-1.4H39.892l-8.288 10.45h5.906l6.708.002c1.655 0 3.125-.753 4.05-1.92l1.17-1.474c.148-.186.235-.42.235-.673 0-.37-.19-.699-.481-.903z"/></g></svg>