<svg width="240" height="240" viewBox="0 0 240 240" xmlns="http://www.w3.org/2000/svg" xmlns:xlink="http://www.w3.org/1999/xlink"><defs><rect id="a" width="240" height="240" rx="120"/></defs><g fill="none" fill-rule="evenodd"><mask id="b" fill="#fff"><use xlink:href="#a"/></mask><use fill="#F4F7FB" xlink:href="#a"/><path d="M74.773 79.5h91.954A7.273 7.273 0 0 1 174 86.773v160.454a7.273 7.273 0 0 1-7.273 7.273H74.773a7.273 7.273 0 0 1-7.273-7.273V86.773a7.273 7.273 0 0 1 7.273-7.273z" stroke="#007FED" stroke-width="9.091" fill="#007FED" mask="url(#b)"/><path fill="#FFF" mask="url(#b)" d="M76.5 94H165v154H76.5z"/><g transform="translate(110 83)" fill="#FFF"><rect width="22.5" height="3" rx="1.5"/><rect x="25.5" width="3" height="3" rx="1.5"/></g><circle fill="#F4F7FB" cx="121.5" cy="141" r="24"/><circle fill="#C8D3DD" cx="121.5" cy="136.5" r="7.5"/><path d="M139.298 157.022c-3.049-6.792-9.871-11.522-17.798-11.522-7.73 0-14.41 4.498-17.564 11.019-.636 1.315 8.199 8.402 17.564 8.481 8.888.075 18.33-6.793 17.798-7.978z" fill="#C8D3DD"/><path stroke="#007FED" stroke-width="3" fill="#007FED" stroke-linecap="round" stroke-linejoin="round" d="M143.916 171.357l-7.416-4.676-7.416 4.676 2.15-8.508-6.734-5.618 8.745-.582 3.255-8.149 3.255 8.149 8.745.582-6.733 5.618 1.564 6.193z"/><rect fill="#E9EEF2" x="100.5" y="181.5" width="43.5" height="6" rx="3"/><rect fill="#E9EEF2" x="90" y="192" width="63" height="15" rx="7.5"/></g></svg>