<svg width="33" height="33" viewBox="0 0 33 33" xmlns="http://www.w3.org/2000/svg"><g fill="none"><path d="M16.799 32.4C25.748 32.4 33 25.148 33 16.201 33 7.255 25.748 0 16.799 0 7.852 0 .599 7.255.599 16.201c0 8.947 7.253 16.2 16.2 16.2" fill="#FFF"/><path d="M20.434 11.982c0-1.842 1.247-3.629 1.928-3.292.775.389-.582 2.124-1.928 3.292m-8.48.671c0-1.48 1.461-4.295 2.354-3.998 1.055.352-.874 3.19-2.354 3.998m-1.482 10.593c-.672.03-1.121-.4-1.121-1.117 0-1.927 2.674-3.769 4.694-4.757-.358 2.691-1.267 5.77-3.573 5.874m12.34-6.28c-1.526 0-2.691 1.121-2.691 2.467 0 1.122.674 2.02 1.569 2.02.316 0 .63-.181.63-.582 0-.587-.774-.727-.716-1.6.04-.575.582-.96 1.12-.96 1.076 0 1.579 1.043 1.579 2.119-.044 1.662-1.267 2.815-2.7 2.815-1.886 0-3.098-1.793-3.098-3.723 0-2.874 1.886-3.995 2.874-4.263.01 0 2.58.457 2.5-.676-.037-.499-.778-.69-1.314-.711-.596-.023-1.197.191-1.197.191-.312-.159-.53-.469-.664-.826 1.84-1.392 3.142-2.737 3.142-4.263 0-.808-.54-1.526-1.572-1.526-1.84 0-3.231 2.334-3.231 4.443 0 .358 0 .718.092 1.031-1.167.852-2.036 1.383-3.605 2.325 0-.196.041-.703.174-1.36.537-.583 1.276-1.458 1.276-2.132 0-.313-.178-.584-.54-.584-.896 0-1.568 1.348-1.748 2.29-.404.496-1.212 1.124-1.887 1.124-.537 0-.718-.494-.763-.674 1.706-.584 3.815-2.917 3.815-5.027 0-.447-.18-1.436-1.525-1.436-2.02 0-3.723 3.008-3.723 5.339-.72 0-.988-.762-.988-1.346 0-.584.224-1.166.224-1.346 0-.18-.09-.403-.36-.403-.672 0-1.076.897-1.076 1.93.046 1.435.988 2.335 2.243 2.423.18.854.942 1.662 1.884 1.662.584 0 1.302-.18 1.796-.628a25.55 25.55 0 0 1-.134.852c-1.976 1.034-3.412 1.752-4.713 2.918-1.03.944-1.614 2.2-1.614 3.185 0 1.348.852 2.604 2.602 2.604 2.063 0 3.635-1.66 4.399-3.95.358-1.075.501-2.642.593-4.08 2.062-1.169 3.04-1.842 4.118-2.606.134.224.27.403.448.537-.942.494-3.185 1.886-3.185 5.161 0 2.333 1.569 4.937 4.667 4.937 2.558 0 4.307-2.11 4.307-4.13 0-1.838-1.032-3.542-3.008-3.542m7.716 3.855c-.007.014-.032.032-.083.016-.04-.014-.048-.032-.048-.058.002-.025.542-1.623.537-3.453-.004-1.979-.807-3.19-1.837-3.19-.63 0-1.078.45-1.078 1.124 0 1.212 1.48 1.302 1.48 3.949 0 1.076-.224 2.108-.581 3.23-1.663 5.608-6.958 8.212-12.116 8.212-2.38 0-4.07-.49-4.572-.715-.021-.012-.04-.05-.024-.09.012-.03.047-.053.067-.044.204.079 1.655.535 3.451.535 1.974 0 3.142-.807 3.142-1.795 0-.628-.494-1.122-1.122-1.122-1.212 0-1.304 1.526-3.906 1.526-1.121 0-2.109-.225-3.275-.585-5.566-1.705-8.216-6.953-8.214-12.159.002-2.536.714-4.556.725-4.575.01-.013.041-.027.08-.013.04.013.048.046.046.058-.064.21-.535 1.657-.535 3.453 0 1.976.807 3.142 1.84 3.142.581 0 1.075-.448 1.075-1.076 0-1.213-1.482-1.348-1.482-3.95 0-1.123.227-2.11.584-3.277C6.388 4.398 11.64 1.791 16.801 1.75c2.398-.018 4.496.7 4.577.764.013.012.027.042.013.079-.019.043-.046.048-.06.045-.025-.002-1.39-.572-3.455-.572-1.93-.002-3.142.806-3.142 1.84 0 .581.45 1.075 1.122 1.075 1.212 0 1.302-1.48 3.906-1.48 1.118 0 2.107.222 3.273.582 5.61 1.705 8.164 7 8.212 12.118.027 2.62-.712 4.603-.72 4.62M16.802.763C8.275.764 1.364 7.672 1.364 16.2c0 8.526 6.91 15.435 15.437 15.435 8.525 0 15.435-6.909 15.435-15.435 0-8.482-6.91-15.437-15.435-15.437m0 31.636C7.871 32.4.6 25.176.6 16.201.6 7.268 7.87 0 16.8 0S33 7.268 33 16.201c0 8.975-7.27 16.2-16.199 16.2" fill="#3B73B9"/></g></svg>