<svg width="47" height="32" viewBox="0 0 47 32" xmlns="http://www.w3.org/2000/svg"><path d="M14.06 13.71v7.404h-2.357v-9.305l4.864.004c2.066 0 2.77 1.458 2.77 2.781v6.52h-2.352v-6.508c0-.554-.287-.895-.979-.895H14.06zm16.02-.11c-.805 0-1.428.414-1.688.976-.155.337-.208.596-.226 1.01h3.625c-.047-1.01-.504-1.986-1.71-1.986zm-1.914 3.59c0 1.204.75 2.092 2.087 2.092 1.04 0 1.558-.289 2.16-.888l1.455 1.39c-.932.92-1.91 1.479-3.632 1.479-2.256 0-4.414-1.23-4.414-4.815 0-3.063 1.884-4.797 4.36-4.797 2.51 0 3.96 2.03 3.96 4.69v.848h-5.976zm-4.333 3.912c-1.92 0-2.734-1.336-2.734-2.656V9.273h2.352v2.536h1.774v1.902H23.45v4.587c0 .54.256.841.817.841h.957v1.963h-1.392zM9.607 10.522H7.235V8.27h2.372v2.254zm.006 10.69c-1.777-.171-2.38-1.249-2.38-2.493l.002-6.91h2.378v9.403zm28.274-.2c-1.773-.17-2.374-1.246-2.374-2.488V7.948h2.374v13.065zm8.3-11.536C44.035-1.016 23.672-1.68 10.547 6.312v.882c13.112-6.74 31.708-6.7 33.402 2.964.567 3.195-1.234 6.527-4.449 8.442v2.506c3.87-1.417 7.84-6.009 6.687-11.63zm-23.86 18.358c-9.058.838-18.497-.478-19.818-7.557-.647-3.49.943-7.19 3.052-9.489V9.56C1.765 12.89-.296 17.105.89 22.085c1.513 6.387 9.615 10.007 21.98 8.805 4.893-.478 11.297-2.051 15.748-4.495v-3.472c-4.04 2.406-10.724 4.395-16.291 4.911z" fill="#0071C5"/></svg>