<svg width="113" height="26" viewBox="0 0 113 26" xmlns="http://www.w3.org/2000/svg"><g fill="none"><path d="M25.247.838c-.413.001-.95.132-1.655.385-2.979 1.07-5.638 2.86-8.068 5.432L13.83 8.733l.653.972c1.12 1.643 2.29 4.426 2.838 6.768.337 1.344.469 2.176.524 3.563.01.233.02.479.026.749.006.268.01.556.013.87.012 1.663.031 3.563-.136 3.563h7.984l.452-.479c.282-.42.324-1.901.324-11.802 0-10.235-.033-11.364-.343-11.72-.217-.252-.505-.38-.918-.379z" fill="#A4CE4E"/><path d="M1.547.839C1.129.832.825.944.569 1.176c-.373.338-.391.987-.391 11.72 0 9.935.043 11.423.337 11.843l.337.48h8.284c6.395 0 8.322-.062 8.452-.27.092-.15.154-1.631.141-3.294-.02-2.512-.118-3.387-.587-5.182-1.025-3.927-2.956-7.467-5.737-10.105C8.987 4.073 6.203 2.25 3.22 1.223 2.5.975 1.965.846 1.547.84z" fill="#0192D5"/><path d="M13.389 8.64l-.54.638c-.958 1.147-2.706 4.947-3.29 7.153-.479 1.802-.578 2.68-.595 5.218-.012 1.677-.042 3.57.13 3.57h8.484c.179 0 .158-1.912.145-3.584-.02-2.527-.151-3.399-.602-5.211-.586-2.356-1.835-5.153-3.032-6.805l-.7-.98z" fill="#0065A5"/><path d="M98.17 4.74c-1.144.001-2.26.407-3.056 1.116-.949.846-1.297 1.542-1.479 2.935l-.145 1.11h-1.644v2.8h1.697v4.167c0 2.29.061 4.229.139 4.308.078.079.841.141 1.697.141h1.558v-8.615h2.546v-2.8h-2.546v-.714c0-1.049.784-1.728 1.843-1.602.445.054.96.165 1.147.25.25.113.51-.118 1-.882l.67-1.037-.477-.363c-.558-.43-1.962-.817-2.95-.815zm-9.359.001c-1.758.09-2.635 2.676-.9 3.598.877.465 1.488.396 2.264-.24.555-.457.695-.739.695-1.429 0-.97-.534-1.633-1.49-1.867a1.967 1.967 0 0 0-.569-.062zM50.242 4.74l-1.748.061-1.741.062-1.93 3.645c-1.06 2.004-1.997 3.713-2.077 3.796-.079.082-1.06-1.582-2.185-3.7l-2.043-3.851-1.721.055-1.721.055-.25 5.632c-.135 3.098-.307 6.8-.382 8.227l-.135 2.595h3.389l.14-2.816c.078-1.548.154-3.66.169-4.693.05-3.566.07-3.564 2.01-.027l1.714 3.12h1.809l1.687-3.258 1.68-3.258.162 3.865c.088 2.126.22 4.585.29 5.466l.12 1.601h3.408l-.006-1.049c-.003-.577-.144-3.98-.316-7.564-.172-3.584-.314-6.84-.316-7.24l-.007-.725zm25.025 0v8.143c0 4.478.064 8.208.144 8.29.08.08 2.494.144 5.363.144h5.22v-3.094H78.99V4.739h-3.723zm-8.863 1.95v2.998l-.932.06-.932.068v2.576l.932.067.932.067.007 2.832c.013 3.757.394 4.81 2.035 5.602 1.136.548 3.46.452 4.763-.195l1.083-.536-.658-1.047-.658-1.047-.952.343c-.885.311-1.003.307-1.535-.034-.573-.367-.576-.383-.576-3.153V12.5h2.851V9.709h-2.83l-.069-1.45-.062-1.449-1.7-.06-1.699-.06zm-8.207 2.925c-2.24.015-4.01 1.177-4.91 3.226-.62 1.41-.595 3.984.057 5.426.552 1.218 1.68 2.268 2.903 2.715 1.833.67 5.069.294 6.54-.761l.56-.398-.625-1.04-.618-1.033-1.068.51c-1.139.545-2.607.676-3.54.311-.694-.271-1.551-1.226-1.551-1.729 0-.368.237-.397 3.81-.397h3.81v-1.02c0-3.473-2.181-5.83-5.368-5.81zm.026 2.577c.635-.01 1.23.207 1.648.636.33.34.605.818.605 1.06 0 .419-.11.437-2.266.437-1.444 0-2.265-.077-2.265-.219 0-.5.62-1.405 1.126-1.642a2.837 2.837 0 0 1 1.152-.272zm48.387-2.577c-3.44 0-5.722 2.034-5.963 5.323-.2 2.725.832 4.66 3.067 5.748 1.336.65 1.498.676 3.502.604 1.757-.063 2.311-.175 3.364-.67.694-.327 1.262-.665 1.262-.75 0-.086-.295-.602-.655-1.149l-.655-.995-.786.45c-1.05.598-3.319.78-4.205.34-.784-.391-1.313-.952-1.516-1.594l-.152-.477h8.452l-.152-1.115c-.52-3.897-2.288-5.715-5.563-5.715zm-.173 2.582c.772 0 1.127.127 1.634.584.357.321.715.8.793 1.062.142.476.13.478-2.427.478-2.556 0-2.568-.002-2.426-.478.078-.263.436-.74.793-1.062.507-.457.862-.584 1.633-.584zM89.895 9.615l-1.43.062-1.43.062-.053 5.514c-.027 3.03-.009 5.635.04 5.789.062.191.53.275 1.483.275h1.39V9.615z" fill="#000"/></g></svg>