<svg width="141" height="32" viewBox="0 0 141 32" xmlns="http://www.w3.org/2000/svg"><g fill="none"><path d="M49.676 18.31l-.842 2.35h-.07a16.52 16.52 0 0 0-.82-2.304L43.43 7.179h-4.422v17.814h2.924V14c0-.691 0-1.475-.023-2.443-.024-.484-.07-.852-.094-1.129h.07c.14.692.305 1.199.421 1.521l5.428 12.998h2.06l5.38-13.113c.117-.3.234-.899.351-1.406h.07c-.07 1.314-.117 2.49-.14 3.204v11.292h3.112V7.133h-4.258L49.676 18.31zm11.839-6.153h3.041v12.767h-3.041V12.157zm1.544-5.393c-.515 0-.936.184-1.287.507-.35.323-.538.737-.538 1.244 0 .484.187.9.538 1.222.351.322.772.484 1.287.484.515 0 .96-.185 1.287-.484a1.61 1.61 0 0 0 .538-1.222c0-.484-.187-.898-.538-1.244-.305-.323-.75-.507-1.287-.507zm12.283 5.277a8.607 8.607 0 0 0-1.708-.184c-1.38 0-2.644.3-3.697.899s-1.895 1.429-2.433 2.466c-.561 1.06-.842 2.281-.842 3.687 0 1.221.28 2.304.819 3.295.538.968 1.286 1.752 2.292 2.282.96.53 2.083.807 3.346.807 1.45 0 2.69-.3 3.673-.853l.024-.023V21.65l-.117.093a5.28 5.28 0 0 1-1.474.76c-.538.184-1.03.277-1.45.277-1.217 0-2.177-.346-2.855-1.107-.702-.737-1.053-1.751-1.053-3.019 0-1.313.351-2.35 1.076-3.11.726-.761 1.685-1.153 2.855-1.153.982 0 1.988.323 2.9.968l.118.092v-2.927l-.024-.023c-.397-.161-.842-.345-1.45-.46zm10.037-.092c-.749 0-1.45.23-2.06.715-.514.414-.865 1.014-1.169 1.728h-.023v-2.235h-3.042v12.767h3.042v-6.522c0-1.106.234-2.028.748-2.696.515-.692 1.17-1.037 1.966-1.037.28 0 .561.069.912.115.328.092.562.184.725.3l.117.092V12.18l-.07-.023c-.21-.139-.632-.208-1.146-.208zm8.282-.069c-2.13 0-3.837.622-5.03 1.844-1.217 1.221-1.802 2.903-1.802 5.024 0 1.982.609 3.595 1.778 4.77 1.17 1.152 2.761 1.752 4.75 1.752 2.082 0 3.743-.623 4.936-1.867 1.217-1.245 1.802-2.904 1.802-4.955 0-2.028-.562-3.641-1.708-4.816-1.1-1.176-2.714-1.752-4.726-1.752zm2.433 9.817c-.561.715-1.45 1.06-2.55 1.06-1.1 0-1.989-.345-2.62-1.106-.632-.714-.936-1.751-.936-3.065 0-1.36.327-2.396.936-3.134.631-.737 1.497-1.106 2.597-1.106 1.076 0 1.918.346 2.526 1.06.609.714.936 1.751.936 3.111-.047 1.383-.304 2.466-.889 3.18zm10.786-4.24c-.96-.392-1.568-.691-1.849-.945-.234-.23-.35-.553-.35-.968 0-.345.14-.691.49-.922.352-.23.75-.345 1.334-.345.515 0 1.053.092 1.568.23.515.139.983.346 1.357.622l.117.093V12.41l-.07-.023a8.54 8.54 0 0 0-1.38-.392 9.518 9.518 0 0 0-1.498-.138c-1.45 0-2.644.346-3.58 1.106-.936.715-1.38 1.683-1.38 2.812 0 .599.094 1.129.304 1.567a3.5 3.5 0 0 0 .936 1.198c.421.323 1.03.692 1.872 1.037.702.3 1.24.53 1.567.715.328.184.538.391.702.553.117.184.187.415.187.714 0 .853-.655 1.268-1.988 1.268-.515 0-1.053-.092-1.685-.3a6.547 6.547 0 0 1-1.708-.853l-.117-.092v2.927l.07.023c.445.207.983.346 1.638.507.655.115 1.24.207 1.755.207 1.567 0 2.854-.345 3.767-1.106.935-.737 1.427-1.682 1.427-2.903 0-.853-.234-1.614-.749-2.19a9.517 9.517 0 0 0-2.737-1.59zm11.51-5.577c-2.129 0-3.836.622-5.03 1.844-1.193 1.221-1.801 2.903-1.801 5.024 0 1.982.608 3.595 1.778 4.77 1.17 1.152 2.76 1.752 4.75 1.752 2.082 0 3.743-.623 4.936-1.867 1.217-1.245 1.801-2.904 1.801-4.955 0-2.028-.561-3.641-1.707-4.816-1.1-1.176-2.714-1.752-4.726-1.752zm2.41 9.817c-.561.715-1.45 1.06-2.55 1.06-1.123 0-1.989-.345-2.62-1.106-.632-.714-.936-1.751-.936-3.065 0-1.36.328-2.396.936-3.134.632-.737 1.497-1.106 2.597-1.106 1.053 0 1.918.346 2.527 1.06.608.714.935 1.751.935 3.111 0 1.383-.304 2.466-.889 3.18zm19.628-7.07V12.15h-3.006V8.357l-.092.023-2.845.856-.07.023v2.892h-4.497v-1.62c0-.74.184-1.318.505-1.688.321-.37.803-.556 1.4-.556.413 0 .849.093 1.33.301l.115.07V6.043l-.068-.023c-.413-.139-.964-.231-1.675-.231-.895 0-1.675.208-2.387.555a3.997 3.997 0 0 0-1.629 1.643c-.39.694-.596 1.48-.596 2.383v1.781h-2.089v2.453h2.089v10.365h3.005V14.627h4.498v6.594c0 2.707 1.262 4.072 3.786 4.072.413 0 .849-.07 1.262-.14.436-.092.757-.207.94-.3l.024-.023v-2.476l-.115.093a1.931 1.931 0 0 1-.62.277c-.23.07-.436.093-.596.093-.597 0-1.01-.139-1.308-.486-.276-.324-.413-.856-.413-1.643v-6.061h3.052z" fill="#737373"/><path fill="#F25022" d="M0 .913h14.628V15.54H0z"/><path fill="#7FBA00" d="M15.603.913h14.628V15.54H15.603z"/><path fill="#00A4EF" d="M0 16.516h14.628v14.628H0z"/><path fill="#FFB900" d="M15.603 16.516h14.628v14.628H15.603z"/></g></svg>