<svg width="240" height="240" viewBox="0 0 240 240" xmlns="http://www.w3.org/2000/svg" xmlns:xlink="http://www.w3.org/1999/xlink"><defs><rect id="a" width="240" height="240" rx="120"/></defs><g fill="none" fill-rule="evenodd"><mask id="b" fill="#fff"><use xlink:href="#a"/></mask><use fill="#F4F7FB" xlink:href="#a"/><g mask="url(#b)"><path d="M61.273 130h119.454a7.273 7.273 0 0 1 7.273 7.273v96.454a7.273 7.273 0 0 1-7.273 7.273H61.273A7.273 7.273 0 0 1 54 233.727v-96.454A7.273 7.273 0 0 1 61.273 130z" stroke="#007FED" stroke-width="9.091" fill="#007FED"/><path d="M151 160h24v24h-24z"/></g><circle fill="#FFF" mask="url(#b)" cx="121" cy="186" r="32"/><path d="M124 182.987h-6c-1.653 0-3-1.344-3-3s1.347-3 3-3h12a3 3 0 0 0 0-6h-6V167a3 3 0 0 0-6 0v3.987c-4.962 0-9 4.04-9 9 0 4.962 4.038 9 9 9h6c1.653 0 3 1.344 3 3s-1.347 3-3 3h-12a3 3 0 1 0 0 6h6v4.036a3 3 0 0 0 6 0v-4.036c4.962 0 9-4.038 9-9 0-4.96-4.038-9-9-9z" fill="#007FED" fill-rule="nonzero" mask="url(#b)"/><path d="M84 125c0-32 12-48 36-48s36 16 36 48" stroke="#C8D3DD" stroke-width="10" stroke-linecap="round"/></g></svg>