<svg width="240" height="240" viewBox="0 0 240 240" xmlns="http://www.w3.org/2000/svg" xmlns:xlink="http://www.w3.org/1999/xlink"><defs><rect id="a" width="240" height="240" rx="120"/></defs><g fill="none" fill-rule="evenodd"><mask id="b" fill="#fff"><use xlink:href="#a"/></mask><use fill="#F4F7FB" xlink:href="#a"/><g mask="url(#b)"><g transform="translate(30 86)"><path d="M7.273 0h165.454A7.273 7.273 0 0 1 180 7.273v152.454a7.273 7.273 0 0 1-7.273 7.273H7.273A7.273 7.273 0 0 1 0 159.727V7.273A7.273 7.273 0 0 1 7.273 0z" stroke="#007FED" stroke-width="9.091" fill="#007FED"/><path fill="#FFF" d="M5.455 14.545h169.091v125H5.455z"/><circle stroke="#FFF" stroke-width="1.818" fill="#FFF" cx="90" cy="4.545" r="2.727"/></g></g><rect fill="#E9EEF2" mask="url(#b)" x="94.5" y="113" width="94.5" height="19.5" rx="3"/><rect fill="#E9EEF2" mask="url(#b)" x="150" y="145" width="39" height="19.5" rx="3"/><rect fill="#E9EEF2" mask="url(#b)" x="94.5" y="144.5" width="44" height="68" rx="3"/><rect fill="#E9EEF2" mask="url(#b)" x="49.5" y="113" width="33" height="100" rx="3"/><g mask="url(#b)"><g transform="translate(157 181)"><circle fill="#007FED" cx="16" cy="16" r="16"/><path d="M9.5 18.5l6 4m7-13l-7 13" stroke="#E9EEF2" stroke-width="3" stroke-linecap="round"/></g></g></g></svg>