<svg width="44" height="33" viewBox="0 0 44 33" xmlns="http://www.w3.org/2000/svg"><g fill="none"><path fill="#E669A2" d="M43.064 14.632H27.387v-4.18h15.677z"/><path fill="#F3BE26" d="M40.974 14.632H27.387V4.181h13.587z"/><path fill="#EE9C34" d="M35.748 14.632h-8.361V0h8.361z"/><path fill="#F3BC87" d="M36.793 13.587h-9.406V1.045h9.406v12.542z"/><path fill="#E3721C" d="M27.387 1.045v12.542h8.361V1.045z"/><path fill="#AD1B02" d="M19.025 14.632h8.362v2.09h-8.362z"/><path fill="#E88D14" d="M27.387 4.18v10.452h9.406V4.181z"/><path fill="#D85604" d="M27.387 4.18v10.452h8.361V4.181z"/><path fill="#C14303" d="M32.612 14.632h-5.225v-6.27h5.225z"/><path fill="#DB4E18" d="M27.387 10.452v4.18h13.587v-4.18z"/><path fill="#D1390D" d="M27.387 10.452v4.18h9.406v-4.18z"/><path fill="#C22303" d="M27.387 10.452v4.18h8.361v-4.18z"/><path fill="#AD1B02" d="M27.387 10.452v4.18h5.225v-4.18z"/><path d="M29.592 20.75c-1.43.239-2.193 1.25-2.193 3.006 0 1.785 1.017 2.976 2.511 2.976.731 0 1.367-.238 2.702-.863v1.458c-1.62.714-2.575.893-3.846.893-1.431 0-2.448-.328-3.243-1.131a3.933 3.933 0 0 1-1.272-2.946c0-2.53 2.035-4.285 4.992-4.285 1.939 0 3.306.863 3.306 2.083 0 .803-.636 1.369-1.558 1.369-.477 0-.858-.149-1.399-.417m-7.009 1.312c1.221-1.54 1.668-2.173 1.668-2.928 0-.755-.596-1.419-1.43-1.419-.477 0-.924.272-1.132.513v3.17l-1.997 2.716V20.1h-1.907l-3.158 5.282V20.1h-1.073l-2.89.664v.754l1.58.151v6.55h1.996l3.039-5.07v5.07h2.235m-15.476-.283h.432c1.553 0 2.416-.963 2.416-2.89 0-1.604-.69-2.48-1.985-2.48-.172 0-.431.03-.863.117v5.253zm0 3.443l1.266.292v.73H.327v-.73l1.151-.292v-8.812H.212v-.73l3.02-.934h.806v1.05c1.41-.875 1.899-1.02 2.647-1.02 1.668 0 2.934 1.575 2.934 3.764 0 2.51-1.697 4.23-4.286 4.23-.288 0-.777-.028-1.295-.058v2.51z" fill="#000"/></g></svg>