<svg width="60" height="32" viewBox="0 0 60 32" xmlns="http://www.w3.org/2000/svg"><defs><linearGradient x1="49.965%" y1=".054%" x2="49.965%" y2="100.004%" id="a"><stop stop-color="#00B8F1" offset="0%"/><stop stop-color="#06A5E5" offset="21.986%"/><stop stop-color="#06A5E5" offset="21.986%"/><stop stop-color="#1870C5" offset="79.431%"/><stop stop-color="#1D61BC" offset="100%"/></linearGradient></defs><g fill="none" fill-rule="evenodd"><path fill="url(#a)" fill-rule="nonzero" d="M0 0v30.23h30.062L59.487.004H0z" transform="translate(.534 .888)"/><path d="M38.808 28.04v2.235h.336v-.97h.377l.608.97h.378l-.65-.97c.324-.04.587-.23.587-.632 0-.44-.268-.633-.797-.633h-.839zm.336.296h.46c.228 0 .483.037.483.316 0 .349-.258.38-.545.38h-.398v-.696zm.42-1.118c-1.065 0-1.972.825-1.972 1.94 0 1.123.907 1.96 1.971 1.96a1.93 1.93 0 0 0 1.93-1.96c0-1.115-.88-1.94-1.93-1.94zm0 .316c.867 0 1.55.706 1.55 1.624 0 .934-.683 1.624-1.55 1.624-.884 0-1.595-.69-1.595-1.624 0-.918.71-1.624 1.594-1.624z" fill="#1870C5" fill-rule="nonzero"/><path d="M36.495 14.944H35.2v-4.887h1.296c1.73 0 3.107.588 3.107 2.412 0 1.884-1.377 2.475-3.107 2.475M22.55 18.438c-.686 0-1.33-.13-1.885-.345l1.866-6.07h.04l1.828 6.086a5.345 5.345 0 0 1-1.847.329m13.6-12.351h-5.884v14.428l-5.14-14.428h-5.095L15.64 18.15c-.464-3.04-3.518-4.093-5.92-4.878-1.582-.525-3.267-1.297-3.251-2.152.013-.7.905-1.347 2.663-1.25 1.185.061 2.23.16 4.306 1.195l2.044-3.672c-1.893-.998-4.518-1.624-6.664-1.63h-.014c-2.504 0-4.59.843-5.885 2.22-.9.965-1.386 2.184-1.408 3.542-.034 1.86.63 3.18 2.02 4.235 1.176.888 2.676 1.46 4.001 1.889 1.635.52 2.97.973 2.954 1.94a1.43 1.43 0 0 1-.388.944c-.407.436-1.032.598-1.897.618-1.667.034-2.904-.234-4.873-1.434L1.51 23.44a13.26 13.26 0 0 0 6.66 1.827h.307c2.064-.041 3.732-.65 5.064-1.753l.216-.195-.589 1.632h5.344l.897-2.815a9.58 9.58 0 0 0 3.14.512 9.58 9.58 0 0 0 3.07-.485l.862 2.788H35.2v-5.83h1.902c4.594 0 7.315-2.411 7.315-6.459 0-4.504-2.642-6.57-8.267-6.57" fill="#FFF"/></g></svg>