<svg width="40" height="40" viewBox="0 0 40 40" xmlns="http://www.w3.org/2000/svg"><g fill="none" fill-rule="evenodd"><path d="M0 0h40v40H0z"/><g transform="translate(-2 2)"><circle fill="#F4F7FB" cx="22.5" cy="19.5" r="15.5"/><path d="M11.818 4.296a5.34 5.34 0 0 0-6.865 8.18l6.865-8.18zm21.044 0a5.34 5.34 0 0 1 6.865 8.18l-6.865-8.18z" fill="#C8D3DD"/><path d="M20 19.818V13a1 1 0 0 1 1-1h1.403a1 1 0 0 1 1 1v6.818l3.877 3.772a1 1 0 0 1 .007 1.427l-.955.946a1 1 0 0 1-1.432-.025L20 20.736v-.918z" fill="#007FED"/></g></g></svg>